<mxfile host="app.diagrams.net" modified="2022-11-24T20:06:23.056Z" agent="5.0 (Windows NT 10.0; Win64; x64) AppleWebKit/537.36 (KHTML, like Gecko) Chrome/107.0.0.0 Safari/537.36" etag="2JjPBkGShbmqT0BdbNJk" version="20.5.3" type="github">
  <diagram id="9WWCypjV2FhlL7u4elJq" name="Page-1">
    <mxGraphModel dx="832" dy="2642" grid="1" gridSize="10" guides="1" tooltips="1" connect="1" arrows="1" fold="1" page="1" pageScale="1" pageWidth="850" pageHeight="1100" math="0" shadow="0">
      <root>
        <mxCell id="0" />
        <mxCell id="1" parent="0" />
        <mxCell id="XBTKMfRpFKu9C5E3vzUd-3" value="&lt;p style=&quot;margin:0px;margin-top:4px;text-align:center;&quot;&gt;&lt;b&gt;cart&lt;/b&gt;&lt;/p&gt;&lt;hr size=&quot;1&quot;/&gt;&lt;p style=&quot;margin:0 0 0 4px;line-height:1.6;&quot;&gt; modified_at: text&lt;/p&gt;&lt;hr size=&quot;1&quot;/&gt;&lt;p style=&quot;margin:0 0 0 4px;line-height:1.6;&quot;&gt; id: text&lt;/p&gt;" style="verticalAlign=top;align=left;overflow=fill;fontSize=14;fontFamily=Helvetica;html=1;rounded=0;shadow=0;comic=0;labelBackgroundColor=none;strokeWidth=1;" parent="1" vertex="1">
          <mxGeometry x="400" y="-200" width="138" height="110" as="geometry" />
        </mxCell>
        <mxCell id="XBTKMfRpFKu9C5E3vzUd-4" value="&lt;p style=&quot;margin:0px;margin-top:4px;text-align:center;&quot;&gt;&lt;b&gt;cart_item&lt;/b&gt;&lt;/p&gt;&lt;hr size=&quot;1&quot;/&gt;&lt;p style=&quot;margin:0 0 0 4px;line-height:1.6;&quot;&gt; quantity: integer&lt;br/&gt; created_at: text&lt;br/&gt; modified_at: text&lt;br/&gt; cart_id: text&lt;br/&gt; product_id: text&lt;/p&gt;&lt;hr size=&quot;1&quot;/&gt;&lt;p style=&quot;margin:0 0 0 4px;line-height:1.6;&quot;&gt; id: text&lt;/p&gt;" style="verticalAlign=top;align=left;overflow=fill;fontSize=14;fontFamily=Helvetica;html=1;rounded=0;shadow=0;comic=0;labelBackgroundColor=none;strokeWidth=1;" parent="1" vertex="1">
          <mxGeometry x="650" y="-270" width="138" height="190" as="geometry" />
        </mxCell>
        <mxCell id="XBTKMfRpFKu9C5E3vzUd-5" value="&lt;p style=&quot;margin:0px;margin-top:4px;text-align:center;&quot;&gt;&lt;b&gt;category&lt;/b&gt;&lt;/p&gt;&lt;hr size=&quot;1&quot;/&gt;&lt;p style=&quot;margin:0 0 0 4px;line-height:1.6;&quot;&gt; title: text&lt;br/&gt; description: text&lt;br/&gt; created_at: text&lt;br/&gt; modified_at: text&lt;/p&gt;&lt;hr size=&quot;1&quot;/&gt;&lt;p style=&quot;margin:0 0 0 4px;line-height:1.6;&quot;&gt; id: text&lt;/p&gt;" style="verticalAlign=top;align=left;overflow=fill;fontSize=14;fontFamily=Helvetica;html=1;rounded=0;shadow=0;comic=0;labelBackgroundColor=none;strokeWidth=1;" parent="1" vertex="1">
          <mxGeometry x="871" y="560" width="138" height="142" as="geometry" />
        </mxCell>
        <mxCell id="XBTKMfRpFKu9C5E3vzUd-6" value="&lt;p style=&quot;margin:0px;margin-top:4px;text-align:center;&quot;&gt;&lt;b&gt;order&lt;/b&gt;&lt;/p&gt;&lt;hr size=&quot;1&quot;/&gt;&lt;p style=&quot;margin:0 0 0 4px;line-height:1.6;&quot;&gt; quantity: integer&lt;br/&gt; created_at: text&lt;br/&gt; modified_at: text&lt;br/&gt; product_id: text&lt;br/&gt; user_id: text&lt;/p&gt;&lt;hr size=&quot;1&quot;/&gt;&lt;p style=&quot;margin:0 0 0 4px;line-height:1.6;&quot;&gt; id: text&lt;/p&gt;" style="verticalAlign=top;align=left;overflow=fill;fontSize=14;fontFamily=Helvetica;html=1;rounded=0;shadow=0;comic=0;labelBackgroundColor=none;strokeWidth=1;" parent="1" vertex="1">
          <mxGeometry x="546" y="860" width="138" height="315" as="geometry" />
        </mxCell>
        <mxCell id="qhNkvky0XH1M-er579gL-8" style="edgeStyle=orthogonalEdgeStyle;rounded=0;orthogonalLoop=1;jettySize=auto;html=1;entryX=0.5;entryY=0.091;entryDx=0;entryDy=0;entryPerimeter=0;" edge="1" parent="1" source="XBTKMfRpFKu9C5E3vzUd-7" target="qhNkvky0XH1M-er579gL-2">
          <mxGeometry relative="1" as="geometry" />
        </mxCell>
        <mxCell id="XBTKMfRpFKu9C5E3vzUd-7" value="&lt;p style=&quot;margin:0px;margin-top:4px;text-align:center;&quot;&gt;&lt;b&gt;product&lt;/b&gt;&lt;/p&gt;&lt;hr size=&quot;1&quot;&gt;&lt;p style=&quot;margin:0 0 0 4px;line-height:1.6;&quot;&gt; title: text&lt;br&gt; description: text&lt;br&gt; quantity: integer&lt;br&gt; image: text&lt;br&gt; size: text&lt;br&gt; rating: real&lt;br&gt; color: text&lt;br&gt; price: real&lt;br&gt; created_at: text&lt;br&gt; modified_at: text&lt;br&gt;gender: varchar(15)&lt;br&gt;brand: text&lt;/p&gt;&lt;p style=&quot;margin:0 0 0 4px;line-height:1.6;&quot;&gt;producttype: text&lt;br&gt;description: text&lt;/p&gt;&lt;hr size=&quot;1&quot;&gt;&lt;p style=&quot;margin:0 0 0 4px;line-height:1.6;&quot;&gt; id: text&lt;/p&gt;" style="verticalAlign=top;align=left;overflow=fill;fontSize=14;fontFamily=Helvetica;html=1;rounded=0;shadow=0;comic=0;labelBackgroundColor=none;strokeWidth=1;" parent="1" vertex="1">
          <mxGeometry x="850" y="-1130" width="138" height="630" as="geometry" />
        </mxCell>
        <mxCell id="XBTKMfRpFKu9C5E3vzUd-8" value="&lt;p style=&quot;margin:0px;margin-top:4px;text-align:center;&quot;&gt;&lt;b&gt;product_category&lt;/b&gt;&lt;/p&gt;&lt;hr size=&quot;1&quot;/&gt;&lt;p style=&quot;margin:0 0 0 4px;line-height:1.6;&quot;&gt; category_id: text&lt;br/&gt; product_id: text&lt;/p&gt;&lt;hr size=&quot;1&quot;/&gt;&lt;p style=&quot;margin:0 0 0 4px;line-height:1.6;&quot;&gt; id: text&lt;/p&gt;" style="verticalAlign=top;align=left;overflow=fill;fontSize=14;fontFamily=Helvetica;html=1;rounded=0;shadow=0;comic=0;labelBackgroundColor=none;strokeWidth=1;" parent="1" vertex="1">
          <mxGeometry x="871" y="860" width="176" height="222" as="geometry" />
        </mxCell>
        <mxCell id="XBTKMfRpFKu9C5E3vzUd-10" value="&lt;p style=&quot;margin:0px;margin-top:4px;text-align:center;&quot;&gt;&lt;b&gt;sqlite_master&lt;/b&gt;&lt;/p&gt;&lt;hr size=&quot;1&quot;/&gt;&lt;p style=&quot;margin:0 0 0 4px;line-height:1.6;&quot;&gt; type: text&lt;br/&gt; name: text&lt;br/&gt; tbl_name: text&lt;br/&gt; rootpage: int&lt;br/&gt; sql: text&lt;/p&gt;" style="verticalAlign=top;align=left;overflow=fill;fontSize=14;fontFamily=Helvetica;html=1;rounded=0;shadow=0;comic=0;labelBackgroundColor=none;strokeWidth=1;" parent="1" vertex="1">
          <mxGeometry x="1009" y="260" width="143" height="141" as="geometry" />
        </mxCell>
        <mxCell id="XBTKMfRpFKu9C5E3vzUd-11" value="&lt;p style=&quot;margin:0px;margin-top:4px;text-align:center;&quot;&gt;&lt;b&gt;user&lt;/b&gt;&lt;/p&gt;&lt;hr size=&quot;1&quot;/&gt;&lt;p style=&quot;margin:0 0 0 4px;line-height:1.6;&quot;&gt; username: text&lt;br/&gt; password: text&lt;br/&gt; salt: text&lt;br/&gt; balance: real&lt;br/&gt; is_admin: integer&lt;br/&gt; first_name: text&lt;br/&gt; last_name: text&lt;br/&gt; email: text&lt;br/&gt; birth_date: text&lt;br/&gt; phone_number: text&lt;br/&gt; address: text&lt;br/&gt; sex: text&lt;br/&gt; created_at: text&lt;br/&gt; modified_at: text&lt;br/&gt; cart_id: text&lt;/p&gt;&lt;hr size=&quot;1&quot;/&gt;&lt;p style=&quot;margin:0 0 0 4px;line-height:1.6;&quot;&gt; id: text&lt;/p&gt;" style="verticalAlign=top;align=left;overflow=fill;fontSize=14;fontFamily=Helvetica;html=1;rounded=0;shadow=0;comic=0;labelBackgroundColor=none;strokeWidth=1;" parent="1" vertex="1">
          <mxGeometry x="220" y="240" width="158" height="422" as="geometry" />
        </mxCell>
        <mxCell id="XBTKMfRpFKu9C5E3vzUd-12" value="" style="html=1;rounded=1;edgeStyle=orthogonalEdgeStyle;dashed=0;startArrow=none;endArrow=block;endSize=12;strokeColor=#595959;exitX=0.750;exitY=0.000;exitDx=0;exitDy=0;entryX=0.500;entryY=1.000;entryDx=0;entryDy=0;" parent="1" source="XBTKMfRpFKu9C5E3vzUd-4" target="XBTKMfRpFKu9C5E3vzUd-3" edge="1">
          <mxGeometry width="50" height="50" relative="1" as="geometry" />
        </mxCell>
        <mxCell id="XBTKMfRpFKu9C5E3vzUd-14" value="" style="html=1;rounded=1;edgeStyle=orthogonalEdgeStyle;dashed=0;startArrow=none;endArrow=block;endSize=12;strokeColor=#595959;exitX=0.250;exitY=0.000;exitDx=0;exitDy=0;entryX=0.500;entryY=1.000;entryDx=0;entryDy=0;" parent="1" source="XBTKMfRpFKu9C5E3vzUd-4" target="XBTKMfRpFKu9C5E3vzUd-7" edge="1">
          <mxGeometry width="50" height="50" relative="1" as="geometry" />
        </mxCell>
        <mxCell id="XBTKMfRpFKu9C5E3vzUd-16" value="" style="html=1;rounded=1;edgeStyle=orthogonalEdgeStyle;dashed=0;startArrow=none;endArrow=block;endSize=12;strokeColor=#595959;exitX=0.750;exitY=0.000;exitDx=0;exitDy=0;entryX=0.500;entryY=1.000;entryDx=0;entryDy=0;" parent="1" source="XBTKMfRpFKu9C5E3vzUd-6" target="XBTKMfRpFKu9C5E3vzUd-7" edge="1">
          <mxGeometry width="50" height="50" relative="1" as="geometry">
            <Array as="points">
              <mxPoint x="650" y="713" />
              <mxPoint x="800" y="713" />
              <mxPoint x="800" y="-500" />
            </Array>
          </mxGeometry>
        </mxCell>
        <mxCell id="XBTKMfRpFKu9C5E3vzUd-18" value="" style="html=1;rounded=1;edgeStyle=orthogonalEdgeStyle;dashed=0;startArrow=none;endArrow=block;endSize=12;strokeColor=#595959;exitX=0.250;exitY=0.000;exitDx=0;exitDy=0;entryX=0.500;entryY=1.000;entryDx=0;entryDy=0;" parent="1" source="XBTKMfRpFKu9C5E3vzUd-6" target="XBTKMfRpFKu9C5E3vzUd-11" edge="1">
          <mxGeometry width="50" height="50" relative="1" as="geometry">
            <Array as="points">
              <mxPoint x="588" y="723" />
              <mxPoint x="449" y="723" />
            </Array>
          </mxGeometry>
        </mxCell>
        <mxCell id="XBTKMfRpFKu9C5E3vzUd-20" value="" style="html=1;rounded=1;edgeStyle=orthogonalEdgeStyle;dashed=0;startArrow=none;endArrow=block;endSize=12;strokeColor=#595959;exitX=0.750;exitY=0.000;exitDx=0;exitDy=0;entryX=0.500;entryY=1.000;entryDx=0;entryDy=0;" parent="1" source="XBTKMfRpFKu9C5E3vzUd-8" target="XBTKMfRpFKu9C5E3vzUd-5" edge="1">
          <mxGeometry width="50" height="50" relative="1" as="geometry">
            <Array as="points">
              <mxPoint x="1001" y="723" />
              <mxPoint x="959" y="723" />
            </Array>
          </mxGeometry>
        </mxCell>
        <mxCell id="XBTKMfRpFKu9C5E3vzUd-21" value="" style="edgeLabel;resizable=0;html=1;align=left;verticalAlign=top;strokeColor=default;" parent="XBTKMfRpFKu9C5E3vzUd-20" vertex="1" connectable="0">
          <mxGeometry x="458" y="384" as="geometry" />
        </mxCell>
        <mxCell id="XBTKMfRpFKu9C5E3vzUd-22" value="" style="html=1;rounded=1;edgeStyle=orthogonalEdgeStyle;dashed=0;startArrow=none;endArrow=block;endSize=12;strokeColor=#595959;exitX=0.250;exitY=0.000;exitDx=0;exitDy=0;entryX=0.500;entryY=1.000;entryDx=0;entryDy=0;" parent="1" source="XBTKMfRpFKu9C5E3vzUd-9" target="XBTKMfRpFKu9C5E3vzUd-7" edge="1">
          <mxGeometry width="50" height="50" relative="1" as="geometry">
            <Array as="points" />
          </mxGeometry>
        </mxCell>
        <mxCell id="XBTKMfRpFKu9C5E3vzUd-23" value="" style="edgeLabel;resizable=0;html=1;align=left;verticalAlign=top;strokeColor=default;" parent="XBTKMfRpFKu9C5E3vzUd-22" vertex="1" connectable="0">
          <mxGeometry x="374" y="361" as="geometry" />
        </mxCell>
        <mxCell id="XBTKMfRpFKu9C5E3vzUd-26" value="" style="html=1;rounded=1;edgeStyle=orthogonalEdgeStyle;dashed=0;startArrow=none;endArrow=block;endSize=12;strokeColor=#595959;exitX=0.250;exitY=0.000;exitDx=0;exitDy=0;entryX=0.500;entryY=1.000;entryDx=0;entryDy=0;" parent="1" source="XBTKMfRpFKu9C5E3vzUd-9" target="XBTKMfRpFKu9C5E3vzUd-11" edge="1">
          <mxGeometry width="50" height="50" relative="1" as="geometry">
            <Array as="points">
              <mxPoint x="940" y="-350" />
              <mxPoint x="415" y="-350" />
              <mxPoint x="415" y="723" />
              <mxPoint x="449" y="723" />
            </Array>
          </mxGeometry>
        </mxCell>
        <mxCell id="XBTKMfRpFKu9C5E3vzUd-28" value="" style="html=1;rounded=1;edgeStyle=orthogonalEdgeStyle;dashed=0;startArrow=none;endArrow=block;endSize=12;strokeColor=#595959;exitX=0.500;exitY=0.000;exitDx=0;exitDy=0;entryX=0.500;entryY=1.000;entryDx=0;entryDy=0;" parent="1" source="XBTKMfRpFKu9C5E3vzUd-11" target="XBTKMfRpFKu9C5E3vzUd-3" edge="1">
          <mxGeometry width="50" height="50" relative="1" as="geometry">
            <Array as="points">
              <mxPoint x="449" y="272" />
              <mxPoint x="615" y="272" />
            </Array>
          </mxGeometry>
        </mxCell>
        <mxCell id="XBTKMfRpFKu9C5E3vzUd-31" value="&lt;p style=&quot;margin:0px;margin-top:4px;text-align:center;&quot;&gt;&lt;b&gt;product&lt;/b&gt;&lt;/p&gt;&lt;hr size=&quot;1&quot;/&gt;&lt;p style=&quot;margin:0 0 0 4px;line-height:1.6;&quot;&gt; title: text&lt;br/&gt; description: text&lt;br/&gt; quantity: integer&lt;br/&gt; image: text&lt;br/&gt; size: text&lt;br/&gt; rating: real&lt;br/&gt; color: text&lt;br/&gt; price: real&lt;br/&gt; created_at: text&lt;br/&gt; modified_at: text&lt;/p&gt;&lt;hr size=&quot;1&quot;/&gt;&lt;p style=&quot;margin:0 0 0 4px;line-height:1.6;&quot;&gt; id: text&lt;/p&gt;" style="verticalAlign=top;align=left;overflow=fill;fontSize=14;fontFamily=Helvetica;html=1;rounded=0;shadow=0;comic=0;labelBackgroundColor=none;strokeWidth=1;" parent="1" vertex="1">
          <mxGeometry x="1200" y="470" width="138" height="357" as="geometry" />
        </mxCell>
        <mxCell id="qhNkvky0XH1M-er579gL-2" value="&lt;p style=&quot;margin:0px;margin-top:4px;text-align:center;&quot;&gt;&lt;b&gt;Gender&lt;/b&gt;&lt;/p&gt;&lt;hr size=&quot;1&quot;&gt;&lt;p style=&quot;margin:0 0 0 4px;line-height:1.6;&quot;&gt;description: varchar(15)&lt;/p&gt;&lt;hr size=&quot;1&quot;&gt;&lt;p style=&quot;margin:0 0 0 4px;line-height:1.6;&quot;&gt; id: text&lt;/p&gt;" style="verticalAlign=top;align=left;overflow=fill;fontSize=14;fontFamily=Helvetica;html=1;rounded=0;shadow=0;comic=0;labelBackgroundColor=none;strokeWidth=1;" vertex="1" parent="1">
          <mxGeometry x="1130" y="-280" width="160" height="110" as="geometry" />
        </mxCell>
        <mxCell id="XBTKMfRpFKu9C5E3vzUd-9" value="&lt;p style=&quot;margin:0px;margin-top:4px;text-align:center;&quot;&gt;&lt;b&gt;product_review&lt;/b&gt;&lt;/p&gt;&lt;hr size=&quot;1&quot;/&gt;&lt;p style=&quot;margin:0 0 0 4px;line-height:1.6;&quot;&gt; rating: real&lt;br/&gt; review: text&lt;br/&gt; created_at: text&lt;br/&gt; modified_at: text&lt;br/&gt; product_id: text&lt;br/&gt; user_id: text&lt;/p&gt;&lt;hr size=&quot;1&quot;/&gt;&lt;p style=&quot;margin:0 0 0 4px;line-height:1.6;&quot;&gt; id: text&lt;/p&gt;" style="verticalAlign=top;align=left;overflow=fill;fontSize=14;fontFamily=Helvetica;html=1;rounded=0;shadow=0;comic=0;labelBackgroundColor=none;strokeWidth=1;" parent="1" vertex="1">
          <mxGeometry x="861" y="-250" width="158" height="210" as="geometry" />
        </mxCell>
        <mxCell id="qhNkvky0XH1M-er579gL-4" value="" style="html=1;rounded=1;edgeStyle=orthogonalEdgeStyle;dashed=0;startArrow=none;endArrow=none;endSize=12;strokeColor=#595959;exitX=0.250;exitY=0.000;exitDx=0;exitDy=0;entryX=0.500;entryY=1.000;entryDx=0;entryDy=0;" edge="1" parent="1" source="XBTKMfRpFKu9C5E3vzUd-8" target="XBTKMfRpFKu9C5E3vzUd-9">
          <mxGeometry width="50" height="50" relative="1" as="geometry">
            <Array as="points">
              <mxPoint x="913" y="713" />
              <mxPoint x="666" y="713" />
            </Array>
            <mxPoint x="915" y="860" as="sourcePoint" />
            <mxPoint x="919" y="-443" as="targetPoint" />
          </mxGeometry>
        </mxCell>
        <mxCell id="qhNkvky0XH1M-er579gL-5" value="" style="edgeLabel;resizable=0;html=1;align=left;verticalAlign=top;strokeColor=default;" vertex="1" connectable="0" parent="qhNkvky0XH1M-er579gL-4">
          <mxGeometry x="374" y="361" as="geometry" />
        </mxCell>
        <mxCell id="qhNkvky0XH1M-er579gL-9" style="edgeStyle=orthogonalEdgeStyle;rounded=0;orthogonalLoop=1;jettySize=auto;html=1;exitX=0.5;exitY=0;exitDx=0;exitDy=0;" edge="1" parent="1" source="qhNkvky0XH1M-er579gL-6" target="qhNkvky0XH1M-er579gL-2">
          <mxGeometry relative="1" as="geometry" />
        </mxCell>
        <mxCell id="qhNkvky0XH1M-er579gL-6" value="&lt;p style=&quot;margin:0px;margin-top:4px;text-align:center;&quot;&gt;&lt;b&gt;SubGender&lt;/b&gt;&lt;/p&gt;&lt;hr size=&quot;1&quot;&gt;&lt;p style=&quot;margin:0 0 0 4px;line-height:1.6;&quot;&gt;description: varchar(15)&lt;/p&gt;&lt;hr size=&quot;1&quot;&gt;&lt;p style=&quot;margin:0 0 0 4px;line-height:1.6;&quot;&gt; id: text&lt;/p&gt;" style="verticalAlign=top;align=left;overflow=fill;fontSize=14;fontFamily=Helvetica;html=1;rounded=0;shadow=0;comic=0;labelBackgroundColor=none;strokeWidth=1;" vertex="1" parent="1">
          <mxGeometry x="1140" y="-130" width="160" height="110" as="geometry" />
        </mxCell>
        <mxCell id="qhNkvky0XH1M-er579gL-11" value="&lt;p style=&quot;margin:0px;margin-top:4px;text-align:center;&quot;&gt;&lt;b&gt;Brand&lt;/b&gt;&lt;/p&gt;&lt;hr size=&quot;1&quot;&gt;&lt;p style=&quot;margin:0 0 0 4px;line-height:1.6;&quot;&gt;title: text&lt;/p&gt;&lt;hr size=&quot;1&quot;&gt;&lt;p style=&quot;margin:0 0 0 4px;line-height:1.6;&quot;&gt; id: text&lt;/p&gt;" style="verticalAlign=top;align=left;overflow=fill;fontSize=14;fontFamily=Helvetica;html=1;rounded=0;shadow=0;comic=0;labelBackgroundColor=none;strokeWidth=1;" vertex="1" parent="1">
          <mxGeometry x="1360" y="-280" width="160" height="110" as="geometry" />
        </mxCell>
        <mxCell id="qhNkvky0XH1M-er579gL-14" value="&lt;p style=&quot;margin:0px;margin-top:4px;text-align:center;&quot;&gt;&lt;b&gt;Type&lt;/b&gt;&lt;/p&gt;&lt;hr size=&quot;1&quot;&gt;&lt;p style=&quot;margin:0 0 0 4px;line-height:1.6;&quot;&gt;title: text&lt;/p&gt;&lt;hr size=&quot;1&quot;&gt;&lt;p style=&quot;margin:0 0 0 4px;line-height:1.6;&quot;&gt; id: text&lt;/p&gt;" style="verticalAlign=top;align=left;overflow=fill;fontSize=14;fontFamily=Helvetica;html=1;rounded=0;shadow=0;comic=0;labelBackgroundColor=none;strokeWidth=1;" vertex="1" parent="1">
          <mxGeometry x="1560" y="-280" width="160" height="110" as="geometry" />
        </mxCell>
      </root>
    </mxGraphModel>
  </diagram>
</mxfile>
